<?xml version="1.0" encoding="UTF-8"?>
<!DOCTYPE svg PUBLIC "-//W3C//DTD SVG 1.1//EN" "http://www.w3.org/Graphics/SVG/1.1/DTD/svg11.dtd">
<!-- Creator: CorelDRAW 2019 (64-Bit) -->
<svg xmlns="http://www.w3.org/2000/svg" xml:space="preserve" width="3000px" height="1500px" version="1.1" style="shape-rendering:geometricPrecision; text-rendering:geometricPrecision; image-rendering:optimizeQuality; fill-rule:evenodd; clip-rule:evenodd"
viewBox="0 0 3000 1500"
 xmlns:xlink="http://www.w3.org/1999/xlink">
 <defs>
  <style type="text/css">
   <![CDATA[
    .fil0 {fill:none}
    .fil2 {fill:#F5551B}
    .fil1 {fill:#F5551B;fill-rule:nonzero}
   ]]>
  </style>
 </defs>
 <g id="Layer_x0020_1">
  <metadata id="CorelCorpID_0Corel-Layer"/>
  <rect class="fil0" x="-0.41" y="1.11" width="3000" height="1500"/>
  <g id="_2548145471264">
   <path class="fil1" d="M1410.34 449.11l188.39 0c29.97,0 53.17,6.77 69.58,20.33 16.42,13.57 27.48,32.6 33.18,57.09 5.72,24.5 8.57,55.79 8.57,93.84 0,34.74 -4.52,61.85 -13.56,81.36 -9.04,19.5 -24.73,33.06 -47.09,40.67 18.55,3.81 31.99,13.08 40.31,27.84 8.33,14.74 12.49,34.73 12.49,59.94l-1.42 231.93 -119.89 0 0 -239.78c0,-17.13 -3.33,-28.07 -10,-32.83 -6.66,-4.75 -18.79,-7.13 -36.39,-7.13l0 279.74 -124.17 0 0 -613zm154.14 226.93c17.13,0 25.69,-18.55 25.69,-55.67 0,-16.17 -0.71,-28.3 -2.14,-36.39 -1.43,-8.08 -4.04,-13.68 -7.85,-16.77 -3.8,-3.09 -9.28,-4.64 -16.41,-4.64l-28.55 0 0 113.47 29.26 0zm186.25 386.07l0 -613 186.97 0 51.38 373.94 51.39 -373.94 188.39 0 0 613 -112.03 0 0 -441.74 -70.66 441.74 -109.89 0 -74.93 -441.74 0 441.74 -110.62 0z"/>
   <path class="fil1" d="M577.67 1057.22c-53.38,0 -91.64,-14.63 -114.79,-43.92 -23.15,-29.29 -34.72,-72.99 -34.72,-131.08l0 -292.01c0,-47.7 13.72,-84.09 41.1,-109.11 27.38,-25.01 65.66,-37.56 114.78,-37.56 99.67,0 149.51,48.93 149.51,146.67l0 37.56c0,37.68 -0.48,101.96 -1.42,125.59l-179.97 0 0 150.82c0,17.84 1.94,32.06 5.66,42.16 3.73,10.11 11.82,15.23 24.1,15.23 9.44,0 16.17,-2.83 20.19,-8.5 4.02,-5.67 6.38,-12.17 7.09,-19.48 0.69,-7.32 1.06,-18.07 1.06,-32.24l0 -83.79 123.29 0 0 63.24c0,60.44 -11.69,104.98 -35.08,133.56 -23.38,28.58 -63.65,42.86 -120.8,42.86zm32.59 -390.61l0 -54.05c0,-37.32 -9.21,-55.98 -27.63,-55.98 -20.79,0 -31.19,18.84 -31.19,55.98l0 54.05 58.82 0z"/>
   <path class="fil1" d="M1221.53 1057.22c-53.38,0 -91.64,-14.63 -114.79,-43.92 -23.14,-29.29 -34.72,-72.99 -34.72,-131.08l0 -292.01c0,-47.7 13.72,-84.09 41.1,-109.11 27.38,-25.01 65.66,-37.56 114.79,-37.56 99.67,0 149.5,48.93 149.5,146.67l0 37.56c0,37.68 -0.47,101.96 -1.42,125.59l-179.97 0 0 150.82c0,17.84 1.94,32.06 5.67,42.16 3.72,10.11 11.81,15.23 24.09,15.23 9.45,0 16.18,-2.83 20.19,-8.5 4.02,-5.67 6.39,-12.17 7.09,-19.48 0.7,-7.32 1.06,-18.07 1.06,-32.24l0 -83.79 123.29 0 0 63.24c0,60.44 -11.69,104.98 -35.07,133.56 -23.38,28.58 -63.65,42.86 -120.81,42.86zm32.59 -390.61l0 -54.05c0,-37.32 -9.21,-55.98 -27.63,-55.98 -20.79,0 -31.18,18.84 -31.18,55.98l0 54.05 58.81 0z"/>
   <polygon class="fil1" points="821.16,1062.11 745.51,448.39 862.55,448.39 907.51,865.86 947.47,448.39 1064.5,448.39 988.86,1062.11 "/>
   <path class="fil1" d="M2419.73 879.11c-49.47,0 -87.06,-15.11 -112.75,-45.32 -25.69,-30.2 -38.53,-72.67 -38.53,-127.38l0 -106.44c0,-52.8 12.87,-92.68 38.53,-119.53 25.66,-26.86 63.28,-40.32 112.75,-40.32 49.48,0 87.09,13.46 112.75,40.32 25.67,26.85 38.54,66.78 38.54,119.53l0 106.44c0,55.13 -12.85,97.77 -38.54,127.74 -25.69,29.97 -63.27,44.96 -112.75,44.96zm0 -112.75c10.94,0 18.35,-4.78 22.13,-14.27 3.77,-9.48 5.7,-22.84 5.7,-39.97l0 -114.29c0,-13.32 -1.78,-24.14 -5.35,-32.47 -3.57,-8.33 -10.82,-12.49 -21.76,-12.49 -20.46,0 -30.69,15.53 -30.69,46.38l0 113.59c0,17.54 2.17,30.95 6.42,39.96 4.26,9.01 12.13,13.56 23.55,13.56z"/>
   <path class="fil2" d="M2419.73 895.26c-49.47,0 -87.09,13.46 -112.75,40.32 -25.66,26.85 -38.53,66.72 -38.53,119.53l0 2.08 121.31 0 0 -2.8c0,-30.85 10.23,-46.38 30.69,-46.38 10.94,0 18.19,4.16 21.76,12.49 3.57,8.33 5.35,19.15 5.35,32.47l0 4.22 123.46 0 0 -2.08c0,-52.75 -12.87,-92.68 -38.54,-119.53 -25.66,-26.86 -63.27,-40.32 -112.75,-40.32z"/>
  </g>
 </g>
</svg>
